<svg xmlns="http://www.w3.org/2000/svg" viewBox="0 0 64 64">
  <defs>
    <linearGradient id="bg" x1="0" y1="0" x2="1" y2="1">
      <stop offset="0%" stop-color="#ef4444"/>
      <stop offset="55%" stop-color="#e11d48"/>
      <stop offset="100%" stop-color="#7c3aed"/>
    </linearGradient>
  </defs>

  <!-- background -->
  <rect x="4" y="4" width="56" height="56" rx="16" fill="url(#bg)"/>

  <!-- central S mark -->
  <path d="M42 19
           C39 16 35 14.8 30.8 14.8
           C24 14.8 19 18.6 19 24
           C19 29.2 23.1 31.7 29 33.1
           C34.2 34.4 37 35.7 37 39
           C37 42.4 34 44.8 29.4 44.8
           C25.5 44.8 21.8 43.3 18.8 40.8"
        fill="none"
        stroke="#ffffff"
        stroke-width="5"
        stroke-linecap="round"
        stroke-linejoin="round"/>

  <!-- upward arrow integrated -->
  <path d="M32 18.5V30.5
           M27.5 23L32 18.5L36.5 23"
        fill="none"
        stroke="#ffffff"
        stroke-width="3.8"
        stroke-linecap="round"
        stroke-linejoin="round"/>

  <!-- notes/documents icon -->
  <g transform="translate(39 37)">
    <rect x="2" y="0" width="10" height="12" rx="2.2" fill="#ffffff" opacity="0.75"/>
    <rect x="0" y="2" width="10" height="12" rx="2.2" fill="#ffffff"/>
    <path d="M3 6h4M3 9h4" stroke="#7c3aed" stroke-width="1.4" stroke-linecap="round"/>
  </g>
</svg>