<svg xmlns="http://www.w3.org/2000/svg" viewBox="0 0 64 64">
  <rect x="4" y="4" width="56" height="56" rx="16" fill="#FF8C42"/>
  <!-- S letter -->
  <path d="M42 19
           C39 16 35 14.8 30.8 14.8
           C24 14.8 19 18.6 19 24
           C19 29.2 23.1 31.7 29 33.1
           C34.2 34.4 37 35.7 37 39
           C37 42.4 34 44.8 29.4 44.8
           C25.5 44.8 21.8 43.3 18.8 40.8"
        fill="none"
        stroke="#ffffff"
        stroke-width="5"
        stroke-linecap="round"
        stroke-linejoin="round"/>
  <!-- upload arrow in upper curve -->
  <line x1="32" y1="28" x2="32" y2="20" stroke="#ffffff" stroke-width="3" stroke-linecap="round"/>
  <polyline points="28,22 32,18 36,22" fill="none" stroke="#ffffff" stroke-width="3" stroke-linecap="round" stroke-linejoin="round"/>
  <!-- small file icon at bottom-right -->
  <g transform="translate(44 42)">
    <rect x="0" y="0" width="12" height="14" rx="2" fill="#ffffff" opacity="0.9"/>
    <line x1="2" y1="4" x2="10" y2="4" stroke="#FF8C42" stroke-width="1.5" stroke-linecap="round"/>
    <line x1="2" y1="7" x2="10" y2="7" stroke="#FF8C42" stroke-width="1.5" stroke-linecap="round"/>
    <line x1="2" y1="10" x2="7" y2="10" stroke="#FF8C42" stroke-width="1.5" stroke-linecap="round"/>
  </g>
</svg>
