<svg xmlns="http://www.w3.org/2000/svg" viewBox="0 0 32 32">
  <defs>
    <linearGradient id="grad" x1="0%" y1="0%" x2="100%" y2="100%">
      <stop offset="0%" style="stop-color:#2E5BFF;stop-opacity:1" />
      <stop offset="100%" style="stop-color:#5B7DFF;stop-opacity:1" />
    </linearGradient>
  </defs>
  <rect width="32" height="32" rx="8" fill="url(#grad)"/>
  <g transform="translate(6, 4)" fill="white">
    <!-- Chess Knight -->
    <path d="M10 24L8 24L8 22L7 22L7 20L6 20L6 18L8 18L8 16L9 16L9 15L8 14L8 12L9 11L9 10L10 9L11 9L12 8L13 8L14 9L15 8L16 9L17 8L18 9L19 10L19 11L18 12L17 14L16 15L16 16L17 16L18 16L18 18L20 18L20 20L19 20L19 22L18 22L18 24L10 24ZM12 21L16 21L16 22L12 22L12 21ZM12 18L16 18L16 20L12 20L12 18ZM13 10L15 10L15 11L13 11L13 10Z" />
  </g>
</svg>
